<?xml version="1.0" standalone="no"?>
<!DOCTYPE svg PUBLIC "-//W3C//DTD SVG 20010904//EN"
 "http://www.w3.org/TR/2001/REC-SVG-20010904/DTD/svg10.dtd">
<svg version="1.0" xmlns="http://www.w3.org/2000/svg"
 width="399.000000pt" height="399.000000pt" viewBox="0 0 399.000000 399.000000"
 preserveAspectRatio="xMidYMid meet">
<metadata>
Created by potrace 1.10, written by Peter Selinger 2001-2011
</metadata>
<g transform="translate(0.000000,399.000000) scale(0.100000,-0.100000)"
fill="#000000" stroke="none">
<path d="M0 3965 c0 -33 -65 33 1918 -1950 2147 -2147 2013 -2015 2046 -2015
14 0 26 5 26 10 0 6 -5 10 -10 10 -6 0 -38 27 -72 60 -35 33 -65 60 -68 60 -3
0 -14 13 -23 30 -10 16 -24 30 -30 30 -7 0 -21 13 -31 28 -11 16 -31 37 -46
47 -15 10 -35 31 -46 47 -10 15 -25 28 -31 28 -7 0 -13 4 -13 8 0 5 -30 38
-66 73 -36 35 -73 72 -82 83 -16 18 -80 81 -149 148 -18 17 -33 35 -33 39 0 5
-6 9 -12 9 -7 0 -22 13 -32 28 -11 16 -32 37 -48 48 -15 10 -28 25 -28 32 0 6
-4 12 -8 12 -5 0 -22 14 -38 31 -60 63 -149 149 -154 149 -3 0 -14 14 -23 30
-10 17 -24 30 -30 30 -7 0 -21 13 -31 28 -11 16 -32 37 -48 48 -15 10 -28 25
-28 32 0 6 -4 12 -9 12 -4 0 -23 16 -42 36 -71 74 -143 144 -149 144 -3 0 -14
14 -23 30 -10 17 -24 30 -30 30 -7 0 -21 13 -31 28 -11 16 -31 37 -46 47 -15
10 -35 31 -46 47 -10 15 -25 28 -31 28 -7 0 -13 4 -13 8 0 8 -62 72 -144 151
-20 19 -36 38 -36 42 0 5 -6 9 -12 9 -7 0 -22 13 -32 28 -11 16 -31 37 -46 47
-15 10 -35 31 -46 47 -10 15 -23 28 -29 28 -5 0 -19 13 -29 28 -11 16 -32 37
-48 48 -15 10 -28 25 -28 32 0 6 -4 12 -9 12 -4 0 -23 16 -42 36 -71 74 -143
144 -149 144 -3 0 -14 13 -23 30 -10 17 -24 30 -30 30 -7 0 -21 13 -31 28 -11
16 -31 37 -46 47 -15 10 -35 31 -46 47 -10 15 -25 28 -31 28 -7 0 -13 4 -13 8
0 10 -130 142 -140 142 -3 0 -14 14 -23 30 -10 17 -24 30 -30 30 -7 0 -21 13
-31 28 -11 16 -31 37 -46 47 -15 10 -35 31 -46 47 -10 15 -23 28 -29 28 -5 0
-19 13 -29 28 -11 16 -32 37 -48 48 -15 10 -28 25 -28 32 0 6 -4 12 -8 12 -5
0 -22 14 -38 31 -60 63 -149 149 -154 149 -3 0 -14 14 -23 30 -10 17 -24 30
-30 30 -7 0 -21 13 -31 28 -11 16 -32 37 -48 48 -15 10 -28 25 -28 32 0 6 -4
12 -9 12 -4 0 -23 16 -42 36 -71 74 -143 144 -149 144 -3 0 -14 14 -23 30 -10
17 -24 30 -30 30 -7 0 -21 13 -31 28 -11 16 -31 37 -46 47 -15 10 -35 31 -46
47 -10 15 -23 28 -29 28 -5 0 -19 13 -29 28 -11 16 -32 37 -48 48 -15 10 -28
25 -28 32 0 6 -4 12 -8 12 -5 0 -22 14 -38 31 -16 16 -53 54 -81 84 -29 29
-53 58 -53 64 0 6 -4 11 -10 11 -5 0 -10 -11 -10 -25z"/>
<path d="M70 3975 c0 -9 8 -18 18 -22 9 -3 49 -39 87 -80 39 -40 76 -73 83
-73 7 0 12 -4 12 -9 0 -13 125 -141 138 -141 7 0 12 -4 12 -10 0 -13 336 -350
349 -350 6 0 11 -4 11 -8 0 -13 125 -142 138 -142 7 0 12 -4 12 -10 0 -13 185
-200 199 -200 6 0 11 -4 11 -8 0 -13 126 -142 138 -142 7 0 12 -4 12 -10 0
-13 185 -200 199 -200 6 0 11 -4 11 -9 0 -14 125 -141 138 -141 7 0 12 -4 12
-9 0 -7 81 -92 139 -146 6 -5 53 -54 105 -107 51 -54 99 -98 105 -98 6 0 11
-4 11 -9 0 -7 81 -92 139 -146 6 -5 53 -54 105 -108 51 -53 99 -97 105 -97 6
0 11 -4 11 -8 0 -13 126 -142 138 -142 7 0 12 -4 12 -9 0 -13 185 -201 198
-201 7 0 12 -4 12 -9 0 -14 125 -141 138 -141 7 0 12 -4 12 -8 0 -13 125 -142
138 -142 7 0 12 -4 12 -10 0 -13 185 -200 199 -200 6 0 11 -4 11 -8 0 -13 125
-142 138 -142 7 0 12 -4 12 -10 0 -13 336 -350 349 -350 6 0 11 -4 11 -10 0
-14 215 -230 228 -230 8 0 12 20 12 55 0 53 -1 55 -27 55 -22 0 -152 126 -748
728 -398 400 -738 742 -756 761 -19 18 -535 532 -1147 1141 -875 872 -1113
1115 -1118 1139 -6 30 -8 31 -65 31 -46 0 -59 -3 -59 -15z"/>
<path d="M1100 3975 c0 -8 5 -15 10 -15 6 0 10 7 10 15 0 8 -4 15 -10 15 -5 0
-10 -7 -10 -15z"/>
<path d="M1220 3970 c0 -13 65 -87 180 -203 99 -100 183 -185 187 -190 5 -4
37 -36 73 -72 36 -36 71 -70 78 -77 123 -124 1075 -1076 1082 -1083 6 -5 121
-120 255 -255 135 -135 250 -249 256 -255 5 -5 86 -86 179 -180 94 -93 174
-174 180 -180 6 -5 61 -61 124 -122 62 -62 118 -113 124 -113 7 0 12 -4 12
-10 0 -5 9 -10 20 -10 11 0 20 5 20 10 0 6 -9 10 -20 10 -11 0 -20 6 -20 14 0
13 -2583 2604 -2668 2676 -23 19 -42 41 -42 48 0 6 -4 12 -10 12 -5 0 -10 -9
-10 -20z"/>
<path d="M1125 3941 c-5 -10 74 -117 99 -133 6 -4 612 -608 1347 -1343 735
-734 1344 -1335 1353 -1335 24 0 21 47 -4 55 -11 4 -27 19 -35 35 -8 16 -28
38 -44 49 -17 12 -32 30 -36 40 -3 10 -17 23 -30 29 -14 7 -30 23 -35 37 -5
14 -16 25 -25 25 -8 0 -28 18 -43 39 -15 22 -37 42 -49 45 -13 4 -25 17 -29
31 -3 14 -10 25 -15 25 -13 0 -139 126 -139 139 0 6 -11 13 -24 17 -13 3 -29
18 -35 33 -7 14 -22 31 -34 36 -12 6 -31 24 -42 42 -11 17 -30 34 -42 37 -12
3 -26 19 -31 36 -6 16 -16 30 -22 30 -14 0 -130 115 -130 128 0 6 -13 15 -30
21 -16 5 -30 16 -30 24 0 8 -20 31 -45 51 -25 21 -45 44 -45 52 0 7 -11 16
-24 20 -15 3 -29 17 -35 35 -5 16 -17 29 -25 29 -8 0 -28 18 -46 39 -17 22
-39 43 -50 46 -10 3 -23 19 -29 35 -5 17 -15 30 -21 30 -15 0 -130 115 -130
129 0 6 -11 13 -24 17 -15 3 -29 17 -35 35 -5 16 -17 29 -26 29 -8 0 -28 18
-43 39 -15 22 -37 42 -49 45 -12 3 -26 19 -31 36 -6 16 -16 30 -22 30 -15 0
-124 109 -133 133 -3 9 -16 17 -27 17 -12 0 -24 9 -29 23 -5 12 -25 35 -44 50
-20 16 -39 37 -42 48 -4 10 -17 22 -30 25 -14 3 -28 17 -34 35 -5 16 -15 29
-21 29 -15 0 -124 109 -133 133 -3 9 -11 17 -17 17 -13 0 -130 115 -130 129 0
6 -11 13 -24 17 -15 3 -29 17 -35 35 -5 16 -17 29 -26 29 -8 0 -28 18 -43 39
-15 22 -37 42 -49 45 -12 3 -26 19 -31 36 -6 16 -16 30 -22 30 -15 0 -124 109
-133 133 -3 9 -16 17 -27 17 -11 0 -24 8 -27 17 -9 24 -109 120 -132 128 -11
3 -22 1 -26 -4z"/>
<path d="M1266 3478 c-105 -69 -206 -196 -206 -259 0 -25 57 -94 99 -120 16
-10 37 -33 46 -52 24 -52 236 -258 355 -347 38 -28 63 -57 82 -94 29 -58 195
-237 271 -293 26 -19 66 -41 89 -48 39 -11 42 -15 55 -65 7 -29 25 -64 38 -78
14 -14 25 -28 25 -32 0 -7 70 -56 179 -125 96 -62 110 -75 122 -118 20 -75 70
-151 125 -187 12 -8 60 -51 107 -95 46 -44 118 -107 161 -140 42 -32 78 -67
82 -77 3 -9 63 -76 135 -148 175 -177 229 -201 322 -139 26 17 61 49 79 72 31
39 33 46 39 151 6 107 5 112 -19 144 -29 40 -49 49 -124 57 -31 3 -62 13 -68
21 -7 7 -13 38 -14 67 -3 95 -90 198 -208 247 -52 21 -59 28 -99 99 -24 42
-71 103 -104 137 -52 52 -67 62 -108 68 -26 4 -61 4 -78 1 -32 -7 -79 15 -79
38 0 27 -73 118 -128 161 -33 25 -91 62 -131 82 -64 34 -74 43 -95 90 -44 96
-315 364 -368 364 -10 0 -22 9 -28 19 -13 25 -17 109 -7 137 10 28 -28 84 -73
107 -24 12 -46 16 -72 11 -35 -5 -40 -2 -103 60 -66 65 -66 66 -60 109 12 80
-37 157 -122 192 -50 21 -63 19 -117 -17z m142 -87 l60 -59 -22 -21 c-29 -27
-32 -27 -65 10 -25 27 -32 29 -50 20 -27 -15 -27 -41 0 -64 11 -10 19 -26 17
-35 -5 -25 -37 -27 -62 -3 -29 27 -46 20 -77 -29 -29 -48 -72 -56 -90 -16 -10
22 -3 32 107 140 65 64 119 116 121 116 1 0 29 -27 61 -59z m30 -178 c62 -40
68 -84 21 -144 -58 -73 -113 -85 -164 -33 -47 47 -23 112 64 169 44 29 45 29
79 8z m148 -149 c24 -25 33 -74 15 -74 -5 0 -21 4 -35 10 -22 8 -30 4 -76 -46
-50 -55 -51 -56 -75 -40 -33 22 -31 37 5 61 16 11 48 41 71 68 23 26 48 47 57
47 8 0 25 -11 38 -26z m174 -8 c11 -20 12 -30 3 -33 -26 -9 -102 -76 -97 -85
3 -5 19 -6 34 -3 22 5 31 1 44 -17 29 -41 21 -51 -33 -43 -43 6 -51 4 -60 -14
-6 -11 -11 -31 -11 -45 0 -33 -19 -73 -37 -80 -28 -11 -36 5 -29 60 6 56 -4
71 -24 34 -14 -25 -21 -25 -49 2 l-23 21 33 29 c64 55 148 141 171 175 28 40
56 40 78 -1z m125 -297 c3 -10 31 -40 61 -68 72 -66 72 -85 -3 -173 -61 -73
-89 -84 -99 -42 -5 20 -1 29 17 42 43 30 79 72 79 92 0 36 -37 22 -83 -31 -38
-45 -47 -51 -70 -45 -15 3 -27 12 -27 19 0 7 25 37 56 66 45 43 53 55 43 67
-19 23 -34 17 -78 -36 -46 -54 -77 -64 -90 -28 -6 18 4 33 68 98 67 67 79 75
98 66 13 -5 25 -17 28 -27z m247 -243 c18 -21 24 -66 10 -66 -4 0 -13 -13 -19
-30 -15 -41 -51 -41 -78 0 -20 30 -45 36 -52 13 -3 -7 7 -23 21 -36 29 -27 33
-49 12 -66 -10 -9 -20 -9 -33 -3 -84 45 -72 151 26 218 32 22 36 22 65 7 17
-8 39 -25 48 -37z m159 -172 c17 -8 37 -30 45 -49 12 -29 11 -37 -2 -64 -17
-34 -90 -101 -110 -101 -42 0 -103 49 -104 83 0 39 52 106 105 135 26 15 31
15 66 -4z m203 -190 c9 -34 -15 -81 -73 -143 l-49 -54 -25 29 -25 29 54 51
c56 53 64 73 39 94 -13 11 -24 4 -71 -44 -30 -31 -58 -56 -61 -56 -2 0 -13 10
-22 22 -18 21 -17 23 63 99 l81 78 42 -41 c23 -22 44 -51 47 -64z m254 -111
c82 -51 98 -133 25 -133 -18 0 -23 6 -23 24 0 14 -10 30 -25 40 -23 15 -27 15
-58 0 -65 -34 -112 -108 -90 -143 16 -26 41 -24 68 3 32 32 42 33 57 2 10 -22
6 -29 -33 -70 -49 -51 -59 -54 -77 -26 -7 11 -18 20 -25 20 -18 0 -53 39 -66
71 -15 41 6 94 60 149 78 80 131 98 187 63z m160 -146 c8 -39 -7 -67 -35 -67
-39 0 -55 27 -36 63 11 22 20 28 41 25 17 -2 28 -10 30 -21z m-94 -73 c9 -3
16 -11 16 -18 0 -15 -143 -166 -158 -166 -6 0 -14 11 -18 24 -5 21 6 36 63 95
72 74 72 74 97 65z m114 -86 c-3 -52 -3 -53 -35 -53 -50 -1 -81 -37 -80 -91 0
-25 5 -44 11 -44 13 0 162 151 193 194 l20 29 26 -19 c15 -10 27 -25 27 -32 0
-8 -21 -33 -47 -56 -46 -42 -46 -42 -27 -64 26 -31 55 -28 79 9 37 57 95 59
95 3 0 -17 -12 -32 -40 -50 -22 -15 -40 -34 -40 -43 0 -9 -18 -27 -40 -41 -22
-13 -50 -39 -63 -57 -18 -27 -28 -33 -52 -31 -51 5 -46 40 15 95 l51 46 -22
23 c-25 27 -54 31 -66 10 -14 -25 -73 -86 -83 -86 -6 0 -18 16 -27 35 -12 24
-23 35 -39 35 -25 0 -41 16 -44 45 -4 37 0 45 40 86 22 23 40 45 40 49 0 4 9
19 21 34 15 19 30 26 55 26 l35 0 -3 -52z m247 -249 c11 -17 -4 -57 -24 -64
-27 -8 -72 -70 -65 -89 11 -30 43 -17 81 33 40 53 61 61 88 35 14 -15 9 -22
-59 -90 -42 -41 -80 -74 -86 -74 -6 0 -28 17 -50 38 -59 55 -56 83 19 161 57
59 83 73 96 50z m233 -61 c22 -22 13 -52 -23 -77 -40 -27 -44 -43 -14 -62 47
-32 19 -125 -47 -159 -16 -8 -30 -18 -32 -22 -8 -17 -49 -7 -72 18 -14 14 -37
37 -51 51 l-26 25 86 84 c47 46 97 100 110 119 24 36 48 44 69 23z"/>
<path d="M1366 3135 c-27 -25 -33 -65 -10 -72 20 -7 75 48 72 71 -4 30 -30 31
-62 1z"/>
<path d="M2055 2480 c10 -11 20 -20 22 -20 1 0 3 9 3 20 0 14 -7 20 -22 20
-20 0 -21 -1 -3 -20z"/>
<path d="M2221 2264 c-34 -28 -38 -45 -16 -64 11 -9 19 -9 35 3 37 26 54 56
40 72 -17 20 -24 19 -59 -11z"/>
<path d="M3284 1258 c-30 -14 -51 -55 -37 -69 17 -17 58 -3 76 25 15 22 15 25
-1 39 -13 11 -23 12 -38 5z"/>
</g>
</svg>
