<?xml version="1.0" standalone="no"?><!DOCTYPE svg PUBLIC "-//W3C//DTD SVG 1.1//EN" "http://www.w3.org/Graphics/SVG/1.1/DTD/svg11.dtd"><svg t="1520302692017" class="icon" style="" viewBox="0 0 1024 1024" version="1.1" xmlns="http://www.w3.org/2000/svg" p-id="1204" xmlns:xlink="http://www.w3.org/1999/xlink" width="512" height="512"><defs><style type="text/css"></style></defs><path d="M500.622222 6.826667c0 3.413333-1.706667 5.12-3.413333 2.844444-3.413333-3.413333-59.164444 28.444444-65.991111 38.115556-2.275556 3.413333-4.551111 4.551111-4.551111 1.706666 0-3.413333-26.168889 10.808889-34.133334 18.773334-1.706667 1.706667-17.635556 10.24-35.271111 19.911111-18.204444 9.102222-32.995556 18.773333-32.995555 21.048889 0 2.275556-1.706667 3.982222-3.982223 3.413333-4.551111-1.137778-30.72 11.946667-35.84 17.635556-1.706667 1.706667-17.635556 10.808889-35.271111 20.48-18.204444 9.102222-32.995556 19.342222-32.995555 22.186666s-1.706667 3.982222-3.413334 1.706667c-3.413333-3.413333-59.164444 28.444444-65.991111 38.115555-2.275556 3.413333-4.551111 4.551111-4.551111 1.706667 0-3.413333-26.168889 10.808889-34.133333 18.773333-1.706667 1.706667-12.515556 7.395556-23.893333 12.515556L62.577778 256v514.844444L276.48 893.155556c117.76 67.128889 219.591111 124.586667 226.417778 127.431111 10.24 3.982222 50.631111-17.635556 235.52-124.586667l223.004444-129.137778V509.155556c0-240.071111-0.568889-257.706667-9.671111-262.257778-5.688889-2.275556-11.946667-3.413333-14.222222-3.413334-2.844444 0.568889-4.551111-1.137778-4.551111-3.982222 0-2.844444-9.102222-8.533333-19.911111-12.515555-10.808889-3.982222-19.911111-9.102222-19.911111-11.377778 0-2.275556-9.102222-7.395556-19.911112-11.377778s-19.911111-9.102222-19.911111-11.377778c0-2.275556-8.533333-6.826667-18.204444-11.377777-10.24-3.982222-19.911111-9.102222-21.617778-10.808889-5.12-6.826667-162.133333-93.866667-166.115555-92.728889-2.844444 1.137778-4.551111-0.568889-4.551112-2.844445 0-5.688889-28.444444-21.048889-35.271111-19.342222-2.844444 0.568889-4.551111-1.137778-4.551111-3.413333 0-5.688889-28.444444-21.048889-35.271111-19.342222-2.844444 0.568889-4.551111-1.137778-4.551111-3.413334 0-5.688889-28.444444-21.048889-35.271111-19.342222-2.844444 0.568889-4.551111-1.706667-4.551111-4.551111 0-3.413333-5.12-5.688889-11.377778-5.688889s-11.377778 2.844444-11.377778 6.826667z m168.96 242.915555c12.515556 6.257778 30.151111 19.911111 38.684445 30.151111 27.306667 32.426667 11.377778 79.075556-29.582223 87.608889-15.928889 3.413333-18.204444 2.275556-21.048888-13.653333-2.275556-9.102222-10.24-22.755556-18.204445-30.151111-13.084444-12.515556-19.911111-13.653333-63.715555-13.653334-43.804444 0-53.475556 2.275556-86.471112 18.204445-54.044444 26.737778-73.955556 47.217778-73.955555 77.368889 0 36.408889 18.773333 48.924444 120.604444 81.351111 100.124444 32.426667 141.653333 56.888889 161.564445 94.435555 26.737778 51.2-18.204444 113.777778-114.346667 161.564445-121.742222 59.733333-254.293333 66.56-275.911111 13.084444-5.688889-13.084444-5.688889-19.911111 0-33.564444 10.24-24.462222 21.617778-29.013333 48.355556-19.342222 40.96 14.222222 73.386667 15.36 118.897777 5.12 51.2-10.808889 117.76-42.666667 134.257778-63.715556 23.893333-30.72 9.671111-50.062222-56.32-73.386667-117.76-41.528889-153.031111-56.32-172.373333-69.973333-55.182222-39.253333-59.733333-106.382222-11.946667-168.96 15.36-21.048889 71.68-61.44 102.4-73.955555 63.715556-26.737778 155.875556-30.72 199.111111-8.533334z" fill="#1296db" p-id="1205"></path></svg>